<svg width="97" height="102" viewBox="0 0 97 102" fill="none" xmlns="http://www.w3.org/2000/svg">
<path d="M70.7567 67.5131C70.7567 67.5131 87.3943 75.5 87.3943 88.0652C93 84 97.2448 86.4357 96.9905 88.0652C96.1946 93.1564 86.0387 99.218 82.4726 99.4683C78.9072 99.7193 77.4645 98.5428 75.8086 98.0415C70.9022 96.5563 71.1389 98.4657 52.6735 101.146C34.2074 103.826 16.3026 99.3435 16.3026 99.3435C16.3026 99.3435 10.8934 102 5.59418 98.0415C0.294975 94.0831 2.75179 90.3207 2.36989 89.0678C-4.54006 66.4014 1.61975 41.3034 48.4783 6.88523C47.0306 2.11662 48.0371 1.5292 49.3126 0.399159C50.1843 -0.186056 51.0384 -0.928401 54.5157 4.6168C54.856 2.21354 54.7333 0.41778 55.9366 0.399133C55.9366 0.399133 59.2831 -1.09263 60.9827 4.75665L65.2102 5.67715C74.2563 7.53464 72 17 74.4838 18.8721C76.9676 20.7441 81.2892 22.1446 82 22.5C85 24 81.9219 29.4724 78.5 29.5C43.5009 29.5 53.287 59.7763 70.7567 67.5131Z" fill="#EEF4F7"/>
</svg>
